<svg xmlns="http://www.w3.org/2000/svg" width="27" height="30"><defs><filter id="a"><feFlood flood-color="#FFF" flood-opacity="1" result="floodOut"/><feComposite operator="atop" in="floodOut" in2="SourceGraphic" result="compOut"/><feBlend in="compOut" in2="SourceGraphic"/></filter></defs><g filter="url(#a)"><path fill-rule="evenodd" d="M26.733 2.848L24.425.462a.96.96 0 00-.687-.293.96.96 0 00-.687.293L9.596 14.394a.974.974 0 00-.211.332l-1.498 3.908a.997.997 0 00.218 1.055.953.953 0 001.036.217l3.793-1.535a.95.95 0 00.33-.223L26.733 4.229a.998.998 0 000-1.381zM12.034 16.619l-1.544.625.619-1.613 12.63-13.078.953.985-12.658 13.081zm9.834-1.176v13.245c0 .724-.629 1.311-1.339 1.311H2.264c-.71 0-1.285-.587-1.285-1.311V3.717c0-.724.575-1.253 1.285-1.253h13.361c.71 0 1.286.587 1.286 1.311s-.576 1.311-1.286 1.311H3.55v22.291h15.747V15.443c0-.724.576-1.311 1.286-1.311.71 0 1.285.587 1.285 1.311z"/></g></svg>
