<svg xmlns="http://www.w3.org/2000/svg" viewBox="0 0 20 20"><defs><filter id="a"><feFlood flood-color="currentColor" flood-opacity="1" result="floodOut"/><feComposite operator="atop" in="floodOut" in2="SourceGraphic" result="compOut"/><feBlend in="compOut" in2="SourceGraphic"/></filter></defs><g filter="url(#a)"><path fill-rule="evenodd" d="M9.998.002C4.469.002-.013 4.478-.013 9.999s4.482 9.997 10.011 9.997c5.528 0 10.01-4.476 10.01-9.997S15.526.002 9.998.002zm0 17.995c-4.416 0-8.008-3.588-8.008-7.998s3.592-7.997 8.008-7.997c4.415 0 8.008 3.587 8.008 7.997s-3.593 7.998-8.008 7.998zM5.994 9.999a2.001 2.001 0 01-2.003-2C3.991 6.895 4.888 6 5.994 6a2 2 0 012.002 1.999c0 1.105-.897 2-2.002 2zm8.899 2.156c-1.014 5.123-8.776 5.123-9.791 0-.12-.604.383-1.156.999-1.156.482 0 .874.346.986.814.695 2.913 5.126 2.913 5.822 0 .111-.468.504-.814.985-.814.616 0 1.119.552.999 1.156zm1.111-4.156a2 2 0 01-2.002 2 2 2 0 110-3.999 2 2 0 012.002 1.999z"/></g></svg>
