<svg xmlns="http://www.w3.org/2000/svg" width="30" height="30"><defs><filter id="a"><feFlood flood-color="#FFF" flood-opacity="1" result="floodOut"/><feComposite operator="atop" in="floodOut" in2="SourceGraphic" result="compOut"/><feBlend in="compOut" in2="SourceGraphic"/></filter></defs><g filter="url(#a)"><path fill-rule="evenodd" d="M15.451.06C7.422.06.89 6.564.89 14.558s6.532 14.497 14.561 14.497 14.561-6.503 14.561-14.497S23.48.06 15.451.06zm0 26.474c-6.632 0-12.029-5.372-12.029-11.976 0-6.604 5.397-11.976 12.029-11.976 6.633 0 12.029 5.372 12.029 11.976 0 6.604-5.396 11.976-12.029 11.976zm4.833-8.947c.495.492.495 1.29 0 1.783a1.264 1.264 0 01-.895.369c-.324 0-.648-.123-.895-.369l-3.938-3.921a1.255 1.255 0 01-.371-.891V7.045c0-.696.566-1.261 1.266-1.261.699 0 1.266.565 1.266 1.261v6.991l3.567 3.551z"/></g></svg>
