<?xml version="1.0" encoding="utf-8"?><svg xmlns="http://www.w3.org/2000/svg" viewBox="0 0 20 19" width="20" height="19"><defs><filter id="ea"><feFlood flood-color="currentColor" flood-opacity="1" result="floodOut"/><feComposite operator="atop" in="floodOut" in2="SourceGraphic" result="compOut"/><feBlend in="compOut" in2="SourceGraphic"/></filter></defs><g filter="url(#ea)"><path fill-rule="evenodd" d="M16.445 4.332a.035.035 0 01-.013-.008.025.025 0 01-.009-.013C15.34 1.765 12.861.003 9.993.003 6.43.003 3.494 2.719 3.05 6.232a.037.037 0 01-.029.033C1.115 6.748-.255 8.613.017 10.764c.226 1.784 1.661 3.2 3.518 3.48a.518.518 0 01.452.508v2.197c0 1.82 2.156 2.732 3.418 1.445l3.71-3.788a.995.995 0 01.708-.299h2.946c2.638 0 4.993-1.98 5.216-4.664.205-2.463-1.32-4.623-3.54-5.311zm-1.534 7.932h-3.322c-.516 0-1.012.203-1.384.567l-3.369 3.291c-.319.311-.847.081-.847-.369v-2.467c0-.565-.448-1.022-1.001-1.022-1.001 0-2.625.067-2.961-1.62-.369-1.853 1.724-3.213 3.198-2.017-2.054-6.906 8.326-9.298 9.673-2.484.017 0 .034-.003.05-.005.017-.002.033-.005.051-.005 3.873 0 4.091 6.131-.088 6.131z"/></g></svg>