<?xml version="1.0" encoding="utf-8"?><svg xmlns="http://www.w3.org/2000/svg" width="30" height="18" viewBox="0 0 30 18"><defs><filter id="ga"><feFlood flood-color="#FFF" flood-opacity="1" result="floodOut"/><feComposite operator="atop" in="floodOut" in2="SourceGraphic" result="compOut"/><feBlend in="compOut" in2="SourceGraphic"/></filter></defs><g filter="url(#ga)"><path fill-rule="evenodd" d="M29.235 1.666c-.001-.047-.008-.094-.014-.14-.005-.037-.008-.073-.016-.109-.008-.04-.023-.078-.036-.118-.014-.039-.025-.08-.042-.118-.015-.032-.034-.063-.052-.095-.023-.041-.045-.083-.073-.121-.005-.008-.008-.016-.014-.024-.017-.023-.038-.04-.057-.062a1.08 1.08 0 00-.091-.1c-.03-.028-.063-.053-.095-.078s-.064-.05-.098-.071c-.036-.023-.073-.041-.111-.06a1.057 1.057 0 00-.108-.05c-.04-.015-.08-.026-.121-.038-.038-.01-.076-.021-.115-.028a1.301 1.301 0 00-.14-.014c-.027-.002-.053-.008-.08-.008H1.382c-.028 0-.054.007-.082.009a1.073 1.073 0 00-.138.013c-.04.007-.078.018-.116.029-.04.011-.081.022-.12.037a.899.899 0 00-.109.051.893.893 0 00-.11.059C.672.651.641.676.609.701.576.726.544.751.514.779.481.81.452.844.422.879.404.901.383.918.365.941.36.949.357.957.351.965c-.027.038-.05.08-.073.121-.017.032-.037.063-.051.096-.018.037-.029.077-.042.117-.013.04-.028.078-.037.118-.008.036-.01.072-.015.109a1.302 1.302 0 00-.015.14l-.002.027V16.19c0 .697.567 1.261 1.266 1.261h26.59c.699 0 1.266-.564 1.266-1.261V1.693c0-.01-.003-.018-.003-.027zm-5.092 1.288l-9.466 6.998-9.466-6.998h18.932zM2.648 14.93V4.199l11.274 8.335c.224.166.489.248.755.248.265 0 .53-.082.754-.248l11.274-8.335V14.93H2.648z"/></g></svg>