<?xml version="1.0" encoding="utf-8"?><svg xmlns="http://www.w3.org/2000/svg" viewBox="0 0 20 20" width="20" height="20"><defs><filter id="ga"><feFlood flood-color="currentColor" flood-opacity="1" result="floodOut"/><feComposite operator="atop" in="floodOut" in2="SourceGraphic" result="compOut"/><feBlend in="compOut" in2="SourceGraphic"/></filter></defs><g filter="url(#ga)"><path fill-rule="evenodd" d="M16.717 12.208a1.935 1.935 0 00-.52 1.669l.644 3.915c.201 1.219-.728 2.208-1.783 2.208a1.73 1.73 0 01-.842-.221l-3.374-1.848a1.756 1.756 0 00-1.684 0l-3.374 1.848a1.741 1.741 0 01-.842.221c-1.055 0-1.984-.989-1.784-2.208l.645-3.915a1.933 1.933 0 00-.521-1.669L.553 9.436C-.521 8.345.071 6.444 1.555 6.219l3.773-.571A1.815 1.815 0 006.69 4.616l1.687-3.561A1.782 1.782 0 0110 .004c.645 0 1.29.35 1.623 1.051l1.687 3.561c.263.557.773.943 1.362 1.032l3.772.571c1.484.225 2.077 2.126 1.003 3.217l-2.73 2.772z"/></g></svg>