<?xml version="1.0" encoding="utf-8"?><svg xmlns="http://www.w3.org/2000/svg" width="29" height="29" viewBox="0 0 29 29"><defs><filter id="ma"><feFlood flood-color="#FFF" flood-opacity="1" result="floodOut"/><feComposite operator="atop" in="floodOut" in2="SourceGraphic" result="compOut"/><feBlend in="compOut" in2="SourceGraphic"/></filter></defs><g filter="url(#ma)"><path fill-rule="evenodd" d="M27.786 3.59l-.064-.059L24.31.603c-.469-.44-1.132-.658-1.826-.597a2.7 2.7 0 00-1.643.744c-.034.034-.067.07-.097.107l-3.351 4.171a2.347 2.347 0 00.059 3.286c.06.059.125.111.195.157l1.714 1.125c-.136.585-1.03 2.285-4.16 5.37-3.129 3.085-4.853 3.967-5.447 4.101l-1.14-1.689a1.274 1.274 0 00-.16-.192 2.428 2.428 0 00-3.333-.059L.89 20.43a1.44 1.44 0 00-.11.097c-.966.954-1.028 2.507-.147 3.42l2.97 3.363c.019.022.039.043.06.064.586.578 1.466.786 2.43.786 1.741 0 3.754-.679 4.8-1.085 2.023-.785 6.003-2.68 9.938-6.558 2.916-2.875 5.278-6.355 6.652-9.798.639-1.603 1.949-5.505.303-7.129zm-8.751 15.156c-5.878 5.795-12.467 7.37-13.591 6.836l-2.878-3.259.003-.01 4.142-3.234 1.114 1.651c.022.032.046.063.071.094.376.459.932.73 1.564.762.616.033 2.486.129 7.537-4.85 1.249-1.231 5.05-4.978 4.919-7.43a2.084 2.084 0 00-.773-1.543 1.67 1.67 0 00-.096-.069l-1.675-1.098 3.281-4.083a.049.049 0 00.011-.004l3.305 2.837c.541 1.109-1.056 7.604-6.934 13.4z"/></g></svg>