<?xml version="1.0" encoding="utf-8"?><svg xmlns="http://www.w3.org/2000/svg" width="22" height="30" viewBox="0 0 22 30"><defs><filter id="na"><feFlood flood-color="#FFF" flood-opacity="1" result="floodOut"/><feComposite operator="atop" in="floodOut" in2="SourceGraphic" result="compOut"/><feBlend in="compOut" in2="SourceGraphic"/></filter></defs><g filter="url(#na)"><path fill-rule="evenodd" d="M18.08 2.632c-1.841-1.587-4.378-2.44-7.142-2.4-2.763.04-5.274.964-7.069 2.603C1.712 4.805.6 7.769.653 11.406c.114 7.921 9.405 17.073 9.8 17.458a1.272 1.272 0 001.798-.026c.384-.396 9.406-9.81 9.292-17.732-.053-3.637-1.25-6.567-3.463-8.474zm-6.768 23.483a48.743 48.743 0 01-3.618-4.371c-2.909-3.985-4.469-7.572-4.509-10.375-.114-7.889 5.934-8.589 7.79-8.616 7.342-.105 8.007 6.395 8.036 8.389.08 5.549-5.491 12.457-7.699 14.973zm-.295-20.446c-2.778.04-5.006 2.358-4.965 5.169.041 2.81 2.334 5.064 5.113 5.024 2.778-.04 5.006-2.358 4.966-5.169-.041-2.81-2.335-5.064-5.114-5.024zm.116 7.987c-1.557.023-2.842-1.256-2.865-2.85-.023-1.594 1.224-2.909 2.781-2.931 1.557-.023 2.843 1.256 2.866 2.85.023 1.594-1.225 2.909-2.782 2.931z"/></g></svg>