<?xml version="1.0" encoding="utf-8"?><svg viewBox="0 0 576 512" xmlns="http://www.w3.org/2000/svg" xmlns:xlink="http://www.w3.org/1999/xlink"><style>:root>svg{display:none}:root>svg:target{display:block}</style><svg viewBox="0 0 451.846 451.847" id="arrow" xmlns="http://www.w3.org/2000/svg"><path fill="#181818" d="M345.441 248.292L151.154 442.573c-12.359 12.365-32.397 12.365-44.75 0-12.354-12.354-12.354-32.391 0-44.744L278.318 225.92 106.409 54.017c-12.354-12.359-12.354-32.394 0-44.748 12.354-12.359 32.391-12.359 44.75 0l194.287 194.284c6.177 6.18 9.262 14.271 9.262 22.366 0 8.099-3.091 16.196-9.267 22.373z"/></svg><svg viewBox="0 0 451.846 451.847" id="arrow-white" xmlns="http://www.w3.org/2000/svg"><path fill="#fff" d="M345.441 248.292L151.154 442.573c-12.359 12.365-32.397 12.365-44.75 0-12.354-12.354-12.354-32.391 0-44.744L278.318 225.92 106.409 54.017c-12.354-12.359-12.354-32.394 0-44.748 12.354-12.359 32.391-12.359 44.75 0l194.287 194.284c6.177 6.18 9.262 14.271 9.262 22.366 0 8.099-3.091 16.196-9.267 22.373z"/></svg><svg viewBox="0 0 27 30" id="bank-item" xmlns="http://www.w3.org/2000/svg"><defs><filter id="ca"><feFlood flood-color="#FFF" flood-opacity="1" result="floodOut"/><feComposite operator="atop" in="floodOut" in2="SourceGraphic" result="compOut"/><feBlend in="compOut" in2="SourceGraphic"/></filter></defs><g filter="url(#ca)"><path fill-rule="evenodd" d="M26.733 2.848L24.425.462a.96.96 0 00-.687-.293.96.96 0 00-.687.293L9.596 14.394a.974.974 0 00-.211.332l-1.498 3.908a.997.997 0 00.218 1.055.953.953 0 001.036.217l3.793-1.535a.95.95 0 00.33-.223L26.733 4.229a.998.998 0 000-1.381zM12.034 16.619l-1.544.625.619-1.613 12.63-13.078.953.985-12.658 13.081zm9.834-1.176v13.245c0 .724-.629 1.311-1.339 1.311H2.264c-.71 0-1.285-.587-1.285-1.311V3.717c0-.724.575-1.253 1.285-1.253h13.361c.71 0 1.286.587 1.286 1.311s-.576 1.311-1.286 1.311H3.55v22.291h15.747V15.443c0-.724.576-1.311 1.286-1.311.71 0 1.285.587 1.285 1.311z"/></g></svg><svg viewBox="0 0 448 448" id="checkmark" xmlns="http://www.w3.org/2000/svg"><path d="M341.333 192.96v188.16H42.667V82.453h266.026l46.934-42.666H0v384h384v-270.08z"/><path d="M417.493 24.213L186.027 234.56l-72.534-72.32-28.16 28.16 102.614 102.613L448 54.08z"/></svg><svg viewBox="0 0 409.806 409.806" id="close" xmlns="http://www.w3.org/2000/svg"><path fill="#181818" d="M228.929 205.01L404.596 29.343c6.78-6.548 6.968-17.352.42-24.132-6.548-6.78-17.352-6.968-24.132-.42-.142.137-.282.277-.42.42L204.796 180.878 29.129 5.21c-6.78-6.548-17.584-6.36-24.132.42-6.388 6.614-6.388 17.099 0 23.713L180.664 205.01 4.997 380.677c-6.663 6.664-6.663 17.468 0 24.132 6.664 6.662 17.468 6.662 24.132 0l175.667-175.667 175.667 175.667c6.78 6.548 17.584 6.36 24.132-.42 6.387-6.614 6.387-17.099 0-23.712L228.929 205.01z"/></svg><svg viewBox="0 0 20 19" id="comment" xmlns="http://www.w3.org/2000/svg"><defs><filter id="fa"><feFlood flood-color="currentColor" flood-opacity="1" result="floodOut"/><feComposite operator="atop" in="floodOut" in2="SourceGraphic" result="compOut"/><feBlend in="compOut" in2="SourceGraphic"/></filter></defs><g filter="url(#fa)"><path fill-rule="evenodd" d="M16.445 4.332a.035.035 0 01-.013-.008.025.025 0 01-.009-.013C15.34 1.765 12.861.003 9.993.003 6.43.003 3.494 2.719 3.05 6.232a.037.037 0 01-.029.033C1.115 6.748-.255 8.613.017 10.764c.226 1.784 1.661 3.2 3.518 3.48a.518.518 0 01.452.508v2.197c0 1.82 2.156 2.732 3.418 1.445l3.71-3.788a.995.995 0 01.708-.299h2.946c2.638 0 4.993-1.98 5.216-4.664.205-2.463-1.32-4.623-3.54-5.311zm-1.534 7.932h-3.322c-.516 0-1.012.203-1.384.567l-3.369 3.291c-.319.311-.847.081-.847-.369v-2.467c0-.565-.448-1.022-1.001-1.022-1.001 0-2.625.067-2.961-1.62-.369-1.853 1.724-3.213 3.198-2.017-2.054-6.906 8.326-9.298 9.673-2.484.017 0 .034-.003.05-.005.017-.002.033-.005.051-.005 3.873 0 4.091 6.131-.088 6.131z"/></g></svg><svg viewBox="0 0 30 18" id="email-item" xmlns="http://www.w3.org/2000/svg"><defs><filter id="ga"><feFlood flood-color="#FFF" flood-opacity="1" result="floodOut"/><feComposite operator="atop" in="floodOut" in2="SourceGraphic" result="compOut"/><feBlend in="compOut" in2="SourceGraphic"/></filter></defs><g filter="url(#ga)"><path fill-rule="evenodd" d="M29.235 1.666c-.001-.047-.008-.094-.014-.14-.005-.037-.008-.073-.016-.109-.008-.04-.023-.078-.036-.118-.014-.039-.025-.08-.042-.118-.015-.032-.034-.063-.052-.095-.023-.041-.045-.083-.073-.121-.005-.008-.008-.016-.014-.024-.017-.023-.038-.04-.057-.062a1.08 1.08 0 00-.091-.1c-.03-.028-.063-.053-.095-.078s-.064-.05-.098-.071c-.036-.023-.073-.041-.111-.06a1.057 1.057 0 00-.108-.05c-.04-.015-.08-.026-.121-.038-.038-.01-.076-.021-.115-.028a1.301 1.301 0 00-.14-.014c-.027-.002-.053-.008-.08-.008H1.382c-.028 0-.054.007-.082.009a1.073 1.073 0 00-.138.013c-.04.007-.078.018-.116.029-.04.011-.081.022-.12.037a.899.899 0 00-.109.051.893.893 0 00-.11.059C.672.651.641.676.609.701.576.726.544.751.514.779.481.81.452.844.422.879.404.901.383.918.365.941.36.949.357.957.351.965c-.027.038-.05.08-.073.121-.017.032-.037.063-.051.096-.018.037-.029.077-.042.117-.013.04-.028.078-.037.118-.008.036-.01.072-.015.109a1.302 1.302 0 00-.015.14l-.002.027V16.19c0 .697.567 1.261 1.266 1.261h26.59c.699 0 1.266-.564 1.266-1.261V1.693c0-.01-.003-.018-.003-.027zm-5.092 1.288l-9.466 6.998-9.466-6.998h18.932zM2.648 14.93V4.199l11.274 8.335c.224.166.489.248.755.248.265 0 .53-.082.754-.248l11.274-8.335V14.93H2.648z"/></g></svg><svg viewBox="0 0 320 512" id="facebook" xmlns="http://www.w3.org/2000/svg"><path fill="#fff" d="M279.14 288l14.22-92.66h-88.91v-60.13c0-25.35 12.42-50.06 52.24-50.06h40.42V6.26S260.43 0 225.36 0c-73.22 0-121.08 44.38-121.08 124.72v70.62H22.89V288h81.39v224h100.17V288z"/></svg><svg viewBox="0 0 448 512" id="instagram" xmlns="http://www.w3.org/2000/svg"><path fill="#fff" d="M224.1 141c-63.6 0-114.9 51.3-114.9 114.9s51.3 114.9 114.9 114.9S339 319.5 339 255.9 287.7 141 224.1 141zm0 189.6c-41.1 0-74.7-33.5-74.7-74.7s33.5-74.7 74.7-74.7 74.7 33.5 74.7 74.7-33.6 74.7-74.7 74.7zm146.4-194.3c0 14.9-12 26.8-26.8 26.8-14.9 0-26.8-12-26.8-26.8s12-26.8 26.8-26.8 26.8 12 26.8 26.8zm76.1 27.2c-1.7-35.9-9.9-67.7-36.2-93.9-26.2-26.2-58-34.4-93.9-36.2-37-2.1-147.9-2.1-184.9 0-35.8 1.7-67.6 9.9-93.9 36.1s-34.4 58-36.2 93.9c-2.1 37-2.1 147.9 0 184.9 1.7 35.9 9.9 67.7 36.2 93.9s58 34.4 93.9 36.2c37 2.1 147.9 2.1 184.9 0 35.9-1.7 67.7-9.9 93.9-36.2 26.2-26.2 34.4-58 36.2-93.9 2.1-37 2.1-147.8 0-184.8zM398.8 388c-7.8 19.6-22.9 34.7-42.6 42.6-29.5 11.7-99.5 9-132.1 9s-102.7 2.6-132.1-9c-19.6-7.8-34.7-22.9-42.6-42.6-11.7-29.5-9-99.5-9-132.1s-2.6-102.7 9-132.1c7.8-19.6 22.9-34.7 42.6-42.6 29.5-11.7 99.5-9 132.1-9s102.7-2.6 132.1 9c19.6 7.8 34.7 22.9 42.6 42.6 11.7 29.5 9 99.5 9 132.1s2.7 102.7-9 132.1z"/></svg><svg viewBox="0 0 20 20" id="like" xmlns="http://www.w3.org/2000/svg"><defs><filter id="ja"><feFlood flood-color="currentColor" flood-opacity="1" result="floodOut"/><feComposite operator="atop" in="floodOut" in2="SourceGraphic" result="compOut"/><feBlend in="compOut" in2="SourceGraphic"/></filter></defs><g filter="url(#ja)"><path fill-rule="evenodd" d="M16.717 12.208a1.935 1.935 0 00-.52 1.669l.644 3.915c.201 1.219-.728 2.208-1.783 2.208a1.73 1.73 0 01-.842-.221l-3.374-1.848a1.756 1.756 0 00-1.684 0l-3.374 1.848a1.741 1.741 0 01-.842.221c-1.055 0-1.984-.989-1.784-2.208l.645-3.915a1.933 1.933 0 00-.521-1.669L.553 9.436C-.521 8.345.071 6.444 1.555 6.219l3.773-.571A1.815 1.815 0 006.69 4.616l1.687-3.561A1.782 1.782 0 0110 .004c.645 0 1.29.35 1.623 1.051l1.687 3.561c.263.557.773.943 1.362 1.032l3.772.571c1.484.225 2.077 2.126 1.003 3.217l-2.73 2.772z"/></g></svg><svg viewBox="0 0 128 128" id="pdf" xmlns="http://www.w3.org/2000/svg"><path d="M95.21 80.32c-.07-.51-.48-1.15-.92-1.58-1.26-1.24-4.03-1.89-8.25-1.95-2.86-.03-6.3.22-9.92.73-1.62-.93-3.29-1.95-4.6-3.18-3.53-3.29-6.47-7.86-8.31-12.89.12-.47.22-.88.32-1.3 0 0 1.98-11.28 1.46-15.1-.07-.52-.12-.67-.26-1.08l-.17-.44c-.54-1.25-1.6-2.57-3.26-2.5l-.98-.03h-.02c-1.86 0-3.36.95-3.76 2.36-1.2 4.44.04 11.09 2.29 19.69l-.58 1.4c-1.61 3.94-3.63 7.9-5.41 11.39l-.23.45c-1.88 3.67-3.58 6.79-5.13 9.43l-1.59.84c-.12.06-2.85 1.51-3.49 1.89-5.43 3.25-9.03 6.93-9.63 9.85-.19.94-.05 2.13.92 2.68l1.54.78c.67.33 1.38.5 2.1.5 3.87 0 8.36-4.82 14.55-15.62 7.14-2.32 15.28-4.26 22.41-5.32 5.43 3.05 12.11 5.18 16.33 5.18.75 0 1.4-.07 1.92-.21.81-.22 1.49-.68 1.91-1.3.82-1.23.98-2.93.76-4.67zM36.49 99.33c.7-1.93 3.5-5.75 7.63-9.13.26-.21.9-.81 1.48-1.37-4.32 6.89-7.21 9.63-9.11 10.5zM60.95 43c1.24 0 1.95 3.13 2.01 6.07.06 2.94-.63 5-1.48 6.53-.71-2.26-1.05-5.82-1.05-8.15 0 0-.05-4.45.52-4.45zm-7.3 40.14c.87-1.55 1.77-3.19 2.69-4.92 2.25-4.25 3.67-7.57 4.72-10.3 2.1 3.82 4.72 7.07 7.79 9.67.39.32.8.65 1.22.98-6.25 1.23-11.66 2.74-16.42 4.57zm39.43-.35c-.38.23-1.47.37-2.17.37-2.26 0-5.07-1.03-9-2.72 1.51-.11 2.9-.17 4.14-.17 2.27 0 2.94-.01 5.17.56 2.22.57 2.25 1.72 1.86 1.96z" fill="#ff402f"/><path d="M104 80c-13.255 0-24 10.745-24 24s10.745 24 24 24 24-10.745 24-24-10.745-24-24-24zm10.882 16.988l-.113.176-8.232 11.438c-.548.866-1.508 1.398-2.537 1.398s-1.989-.532-2.536-1.397l-8.346-11.614a3.01 3.01 0 01.01-2.994 3.01 3.01 0 012.596-1.494H100V86c0-1.654 1.346-3 3-3h2c1.654 0 3 1.346 3 3v6.5h4.276c1.065 0 2.061.572 2.596 1.494a3.01 3.01 0 01.01 2.994z" fill="#ff402f"/><path fill="#ff9a30" d="M84 125.95l-.05.05H84zM114 77v-.05l-.05.05z"/><path d="M111.071 44.243L71.757 4.929A9.936 9.936 0 0064.687 2H24c-5.514 0-10 4.486-10 10v104c0 5.514 4.486 10 10 10h59.95l-4-4H24c-3.309 0-6-2.691-6-6V12c0-3.309 2.691-6 6-6h40.687c1.603 0 3.109.624 4.242 1.757l39.314 39.314A6.044 6.044 0 01110 51.313V72.95l4 4V51.313c0-2.67-1.04-5.181-2.929-7.07z" fill="#ff402f"/><path fill="#fff" d="M113.95 77l.05-.05-4-4"/></svg><svg viewBox="0 0 512 512" id="phone" xmlns="http://www.w3.org/2000/svg"><path fill="#181818" d="M497.39 361.8l-112-48a24 24 0 00-28 6.9l-49.6 60.6A370.66 370.66 0 01130.6 204.11l60.6-49.6a23.94 23.94 0 006.9-28l-48-112A24.16 24.16 0 00122.6.61l-104 24A24 24 0 000 48c0 256.5 207.9 464 464 464a24 24 0 0023.4-18.6l24-104a24.29 24.29 0 00-14.01-27.6z"/></svg><svg viewBox="0 0 29 29" id="phone-item" xmlns="http://www.w3.org/2000/svg"><defs><filter id="ma"><feFlood flood-color="#FFF" flood-opacity="1" result="floodOut"/><feComposite operator="atop" in="floodOut" in2="SourceGraphic" result="compOut"/><feBlend in="compOut" in2="SourceGraphic"/></filter></defs><g filter="url(#ma)"><path fill-rule="evenodd" d="M27.786 3.59l-.064-.059L24.31.603c-.469-.44-1.132-.658-1.826-.597a2.7 2.7 0 00-1.643.744c-.034.034-.067.07-.097.107l-3.351 4.171a2.347 2.347 0 00.059 3.286c.06.059.125.111.195.157l1.714 1.125c-.136.585-1.03 2.285-4.16 5.37-3.129 3.085-4.853 3.967-5.447 4.101l-1.14-1.689a1.274 1.274 0 00-.16-.192 2.428 2.428 0 00-3.333-.059L.89 20.43a1.44 1.44 0 00-.11.097c-.966.954-1.028 2.507-.147 3.42l2.97 3.363c.019.022.039.043.06.064.586.578 1.466.786 2.43.786 1.741 0 3.754-.679 4.8-1.085 2.023-.785 6.003-2.68 9.938-6.558 2.916-2.875 5.278-6.355 6.652-9.798.639-1.603 1.949-5.505.303-7.129zm-8.751 15.156c-5.878 5.795-12.467 7.37-13.591 6.836l-2.878-3.259.003-.01 4.142-3.234 1.114 1.651c.022.032.046.063.071.094.376.459.932.73 1.564.762.616.033 2.486.129 7.537-4.85 1.249-1.231 5.05-4.978 4.919-7.43a2.084 2.084 0 00-.773-1.543 1.67 1.67 0 00-.096-.069l-1.675-1.098 3.281-4.083a.049.049 0 00.011-.004l3.305 2.837c.541 1.109-1.056 7.604-6.934 13.4z"/></g></svg><svg viewBox="0 0 22 30" id="position-item" xmlns="http://www.w3.org/2000/svg"><defs><filter id="na"><feFlood flood-color="#FFF" flood-opacity="1" result="floodOut"/><feComposite operator="atop" in="floodOut" in2="SourceGraphic" result="compOut"/><feBlend in="compOut" in2="SourceGraphic"/></filter></defs><g filter="url(#na)"><path fill-rule="evenodd" d="M18.08 2.632c-1.841-1.587-4.378-2.44-7.142-2.4-2.763.04-5.274.964-7.069 2.603C1.712 4.805.6 7.769.653 11.406c.114 7.921 9.405 17.073 9.8 17.458a1.272 1.272 0 001.798-.026c.384-.396 9.406-9.81 9.292-17.732-.053-3.637-1.25-6.567-3.463-8.474zm-6.768 23.483a48.743 48.743 0 01-3.618-4.371c-2.909-3.985-4.469-7.572-4.509-10.375-.114-7.889 5.934-8.589 7.79-8.616 7.342-.105 8.007 6.395 8.036 8.389.08 5.549-5.491 12.457-7.699 14.973zm-.295-20.446c-2.778.04-5.006 2.358-4.965 5.169.041 2.81 2.334 5.064 5.113 5.024 2.778-.04 5.006-2.358 4.966-5.169-.041-2.81-2.335-5.064-5.114-5.024zm.116 7.987c-1.557.023-2.842-1.256-2.865-2.85-.023-1.594 1.224-2.909 2.781-2.931 1.557-.023 2.843 1.256 2.866 2.85.023 1.594-1.225 2.909-2.782 2.931z"/></g></svg><svg viewBox="0 0 32 32" id="search" xmlns="http://www.w3.org/2000/svg"><path d="M19.427 20.427a8.5 8.5 0 111.083-.917l5.998 5.998a.699.699 0 01-.008.992.7.7 0 01-.992.008l-6.08-6.08zM14.5 21a7.5 7.5 0 100-15 7.5 7.5 0 000 15z" fill="#fff" fill-rule="evenodd"/></svg><svg viewBox="0 0 32 32" id="search-black" xmlns="http://www.w3.org/2000/svg"><path d="M19.427 20.427a8.5 8.5 0 111.083-.917l5.998 5.998a.699.699 0 01-.008.992.7.7 0 01-.992.008l-6.08-6.08zM14.5 21a7.5 7.5 0 100-15 7.5 7.5 0 000 15z" fill="#181818" fill-rule="evenodd"/></svg><svg fill="#181818" viewBox="0 0 511.999 511.999" id="shopping-cart" xmlns="http://www.w3.org/2000/svg"><path d="M214.685 402.828c-24.829 0-45.029 20.2-45.029 45.029 0 24.829 20.2 45.029 45.029 45.029s45.029-20.2 45.029-45.029c-.001-24.829-20.201-45.029-45.029-45.029zm0 64.914c-10.966 0-19.887-8.922-19.887-19.887 0-10.966 8.922-19.887 19.887-19.887s19.887 8.922 19.887 19.887c0 10.967-8.922 19.887-19.887 19.887zm157.945-64.914c-24.829 0-45.029 20.2-45.029 45.029 0 24.829 20.2 45.029 45.029 45.029s45.029-20.2 45.029-45.029c-.001-24.829-20.201-45.029-45.029-45.029zm0 64.914c-10.966 0-19.887-8.922-19.887-19.887 0-10.966 8.922-19.887 19.887-19.887 10.966 0 19.887 8.922 19.887 19.887 0 10.967-8.922 19.887-19.887 19.887zm11.086-301.987H203.567c-6.943 0-12.571 5.628-12.571 12.571s5.629 12.571 12.571 12.571h180.149c6.943 0 12.571-5.628 12.571-12.571 0-6.944-5.628-12.571-12.571-12.571zm-9.805 65.28H213.373c-6.943 0-12.571 5.628-12.571 12.571s5.628 12.571 12.571 12.571H373.91c6.943 0 12.571-5.628 12.571-12.571 0-6.942-5.628-12.571-12.57-12.571z"/><path d="M506.341 109.744a25.04 25.04 0 00-19.489-9.258H95.278L87.37 62.097a25.173 25.173 0 00-14.614-17.989l-55.177-23.95c-6.37-2.767-13.773.156-16.536 6.524-2.766 6.37.157 13.774 6.524 16.537L62.745 67.17l60.826 295.261c2.396 11.628 12.752 20.068 24.625 20.068h301.166c6.943 0 12.571-5.628 12.571-12.571s-5.628-12.571-12.571-12.571H148.197l-7.399-35.916H451.69c11.872 0 22.229-8.44 24.624-20.068l35.163-170.675a25.043 25.043 0 00-5.136-20.954zM451.69 296.301H135.619l-35.161-170.674 386.393.001-35.161 170.673z"/></svg><svg viewBox="0 0 20 20" id="smile" xmlns="http://www.w3.org/2000/svg"><defs><filter id="ra"><feFlood flood-color="currentColor" flood-opacity="1" result="floodOut"/><feComposite operator="atop" in="floodOut" in2="SourceGraphic" result="compOut"/><feBlend in="compOut" in2="SourceGraphic"/></filter></defs><g filter="url(#ra)"><path fill-rule="evenodd" d="M9.998.002C4.469.002-.013 4.478-.013 9.999s4.482 9.997 10.011 9.997c5.528 0 10.01-4.476 10.01-9.997S15.526.002 9.998.002zm0 17.995c-4.416 0-8.008-3.588-8.008-7.998s3.592-7.997 8.008-7.997c4.415 0 8.008 3.587 8.008 7.997s-3.593 7.998-8.008 7.998zM5.994 9.999a2.001 2.001 0 01-2.003-2C3.991 6.895 4.888 6 5.994 6a2 2 0 012.002 1.999c0 1.105-.897 2-2.002 2zm8.899 2.156c-1.014 5.123-8.776 5.123-9.791 0-.12-.604.383-1.156.999-1.156.482 0 .874.346.986.814.695 2.913 5.126 2.913 5.822 0 .111-.468.504-.814.985-.814.616 0 1.119.552.999 1.156zm1.111-4.156a2 2 0 01-2.002 2 2 2 0 110-3.999 2 2 0 012.002 1.999z"/></g></svg><svg viewBox="0 0 30 30" id="time-item" xmlns="http://www.w3.org/2000/svg"><defs><filter id="sa"><feFlood flood-color="#FFF" flood-opacity="1" result="floodOut"/><feComposite operator="atop" in="floodOut" in2="SourceGraphic" result="compOut"/><feBlend in="compOut" in2="SourceGraphic"/></filter></defs><g filter="url(#sa)"><path fill-rule="evenodd" d="M15.451.06C7.422.06.89 6.564.89 14.558s6.532 14.497 14.561 14.497 14.561-6.503 14.561-14.497S23.48.06 15.451.06zm0 26.474c-6.632 0-12.029-5.372-12.029-11.976 0-6.604 5.397-11.976 12.029-11.976 6.633 0 12.029 5.372 12.029 11.976 0 6.604-5.396 11.976-12.029 11.976zm4.833-8.947c.495.492.495 1.29 0 1.783a1.264 1.264 0 01-.895.369c-.324 0-.648-.123-.895-.369l-3.938-3.921a1.255 1.255 0 01-.371-.891V7.045c0-.696.566-1.261 1.266-1.261.699 0 1.266.565 1.266 1.261v6.991l3.567 3.551z"/></g></svg><svg viewBox="0 0 512 512" id="twitter" xmlns="http://www.w3.org/2000/svg"><path fill="#fff" d="M459.37 151.716c.325 4.548.325 9.097.325 13.645 0 138.72-105.583 298.558-298.558 298.558-59.452 0-114.68-17.219-161.137-47.106 8.447.974 16.568 1.299 25.34 1.299 49.055 0 94.213-16.568 130.274-44.832-46.132-.975-84.792-31.188-98.112-72.772 6.498.974 12.995 1.624 19.818 1.624 9.421 0 18.843-1.3 27.614-3.573-48.081-9.747-84.143-51.98-84.143-102.985v-1.299c13.969 7.797 30.214 12.67 47.431 13.319-28.264-18.843-46.781-51.005-46.781-87.391 0-19.492 5.197-37.36 14.294-52.954 51.655 63.675 129.3 105.258 216.365 109.807-1.624-7.797-2.599-15.918-2.599-24.04 0-57.828 46.782-104.934 104.934-104.934 30.213 0 57.502 12.67 76.67 33.137 23.715-4.548 46.456-13.32 66.599-25.34-7.798 24.366-24.366 44.833-46.132 57.827 21.117-2.273 41.584-8.122 60.426-16.243-14.292 20.791-32.161 39.308-52.628 54.253z"/></svg><svg viewBox="0 0 30.051 30.051" id="video" xmlns="http://www.w3.org/2000/svg"><path d="M19.982 14.438l-6.24-4.536a.752.752 0 00-1.195.607v9.069a.75.75 0 001.195.606l6.24-4.532a.747.747 0 000-1.214z"/><path d="M15.026.002C6.726.002 0 6.728 0 15.028c0 8.297 6.726 15.021 15.026 15.021 8.298 0 15.025-6.725 15.025-15.021.001-8.3-6.727-15.026-15.025-15.026zm0 27.54c-6.912 0-12.516-5.601-12.516-12.514 0-6.91 5.604-12.518 12.516-12.518 6.911 0 12.514 5.607 12.514 12.518.001 6.913-5.603 12.514-12.514 12.514z"/></svg><svg viewBox="0 0 576 512" id="vk" xmlns="http://www.w3.org/2000/svg"><path fill="#fff" d="M545 117.7c3.7-12.5 0-21.7-17.8-21.7h-58.9c-15 0-21.9 7.9-25.6 16.7 0 0-30 73.1-72.4 120.5-13.7 13.7-20 18.1-27.5 18.1-3.7 0-9.4-4.4-9.4-16.9V117.7c0-15-4.2-21.7-16.6-21.7h-92.6c-9.4 0-15 7-15 13.5 0 14.2 21.2 17.5 23.4 57.5v86.8c0 19-3.4 22.5-10.9 22.5-20 0-68.6-73.4-97.4-157.4-5.8-16.3-11.5-22.9-26.6-22.9H38.8c-16.8 0-20.2 7.9-20.2 16.7 0 15.6 20 93.1 93.1 195.5C160.4 378.1 229 416 291.4 416c37.5 0 42.1-8.4 42.1-22.9 0-66.8-3.4-73.1 15.4-73.1 8.7 0 23.7 4.4 58.7 38.1 40 40 46.6 57.9 69 57.9h58.9c16.8 0 25.3-8.4 20.4-25-11.2-34.9-86.9-106.7-90.3-111.5-8.7-11.2-6.2-16.2 0-26.2.1-.1 72-101.3 79.4-135.6z"/></svg><svg viewBox="0 0 512 512" id="whatsapp" xmlns="http://www.w3.org/2000/svg"><path d="M256.064 0h-.128C114.784 0 0 114.816 0 256c0 56 18.048 107.904 48.736 150.048l-31.904 95.104 98.4-31.456C155.712 496.512 204 512 256.064 512 397.216 512 512 397.152 512 256S397.216 0 256.064 0z" fill="#fff"/><path d="M405.024 361.504c-6.176 17.44-30.688 31.904-50.24 36.128-13.376 2.848-30.848 5.12-89.664-19.264-75.232-31.168-123.68-107.616-127.456-112.576-3.616-4.96-30.4-40.48-30.4-77.216s18.656-54.624 26.176-62.304c6.176-6.304 16.384-9.184 26.176-9.184 3.168 0 6.016.16 8.576.288 7.52.32 11.296.768 16.256 12.64 6.176 14.88 21.216 51.616 23.008 55.392 1.824 3.776 3.648 8.896 1.088 13.856-2.4 5.12-4.512 7.392-8.288 11.744-3.776 4.352-7.36 7.68-11.136 12.352-3.456 4.064-7.36 8.416-3.008 15.936 4.352 7.36 19.392 31.904 41.536 51.616 28.576 25.44 51.744 33.568 60.032 37.024 6.176 2.56 13.536 1.952 18.048-2.848 5.728-6.176 12.8-16.416 20-26.496 5.12-7.232 11.584-8.128 18.368-5.568 6.912 2.4 43.488 20.48 51.008 24.224 7.52 3.776 12.48 5.568 14.304 8.736 1.792 3.168 1.792 18.048-4.384 35.52z" fill="#181818"/></svg><svg viewBox="0 0 512 512" id="whatsapp-footer" xmlns="http://www.w3.org/2000/svg"><path d="M256.064 0h-.128C114.784 0 0 114.816 0 256c0 56 18.048 107.904 48.736 150.048l-31.904 95.104 98.4-31.456C155.712 496.512 204 512 256.064 512 397.216 512 512 397.152 512 256S397.216 0 256.064 0z" fill="#29d113"/><path d="M405.024 361.504c-6.176 17.44-30.688 31.904-50.24 36.128-13.376 2.848-30.848 5.12-89.664-19.264-75.232-31.168-123.68-107.616-127.456-112.576-3.616-4.96-30.4-40.48-30.4-77.216s18.656-54.624 26.176-62.304c6.176-6.304 16.384-9.184 26.176-9.184 3.168 0 6.016.16 8.576.288 7.52.32 11.296.768 16.256 12.64 6.176 14.88 21.216 51.616 23.008 55.392 1.824 3.776 3.648 8.896 1.088 13.856-2.4 5.12-4.512 7.392-8.288 11.744-3.776 4.352-7.36 7.68-11.136 12.352-3.456 4.064-7.36 8.416-3.008 15.936 4.352 7.36 19.392 31.904 41.536 51.616 28.576 25.44 51.744 33.568 60.032 37.024 6.176 2.56 13.536 1.952 18.048-2.848 5.728-6.176 12.8-16.416 20-26.496 5.12-7.232 11.584-8.128 18.368-5.568 6.912 2.4 43.488 20.48 51.008 24.224 7.52 3.776 12.48 5.568 14.304 8.736 1.792 3.168 1.792 18.048-4.384 35.52z" fill="#181818"/></svg><svg viewBox="0 0 512 512" id="whatsapp-header" xmlns="http://www.w3.org/2000/svg"><path d="M256.064 0h-.128C114.784 0 0 114.816 0 256c0 56 18.048 107.904 48.736 150.048l-31.904 95.104 98.4-31.456C155.712 496.512 204 512 256.064 512 397.216 512 512 397.152 512 256S397.216 0 256.064 0z" fill="#29d113"/><path d="M405.024 361.504c-6.176 17.44-30.688 31.904-50.24 36.128-13.376 2.848-30.848 5.12-89.664-19.264-75.232-31.168-123.68-107.616-127.456-112.576-3.616-4.96-30.4-40.48-30.4-77.216s18.656-54.624 26.176-62.304c6.176-6.304 16.384-9.184 26.176-9.184 3.168 0 6.016.16 8.576.288 7.52.32 11.296.768 16.256 12.64 6.176 14.88 21.216 51.616 23.008 55.392 1.824 3.776 3.648 8.896 1.088 13.856-2.4 5.12-4.512 7.392-8.288 11.744-3.776 4.352-7.36 7.68-11.136 12.352-3.456 4.064-7.36 8.416-3.008 15.936 4.352 7.36 19.392 31.904 41.536 51.616 28.576 25.44 51.744 33.568 60.032 37.024 6.176 2.56 13.536 1.952 18.048-2.848 5.728-6.176 12.8-16.416 20-26.496 5.12-7.232 11.584-8.128 18.368-5.568 6.912 2.4 43.488 20.48 51.008 24.224 7.52 3.776 12.48 5.568 14.304 8.736 1.792 3.168 1.792 18.048-4.384 35.52z" fill="#fff"/></svg></svg>